<?xml version="1.0" encoding="UTF-8"?>
<svg version="1.1" xmlns="http://www.w3.org/2000/svg" width="1024" height="1536">
<path d="M0 0 C337.92 0 675.84 0 1024 0 C1024 506.88 1024 1013.76 1024 1536 C686.08 1536 348.16 1536 0 1536 C0 1029.12 0 522.24 0 0 Z " fill="#FDFDFD" transform="translate(0,0)"/>
<path d="M0 0 C0.91652344 0.46921875 1.83304688 0.9384375 2.77734375 1.421875 C15.9901221 8.81308334 24.93507958 19.68909815 29.68359375 34.0703125 C33.04932761 46.65119356 30.61174414 60.30751489 29 73 C30.4540625 73.928125 30.4540625 73.928125 31.9375 74.875 C35 77 35 77 36 79 C36.29216877 84.39493026 35.55817026 89.16918763 34.3125 94.375 C34.13533447 95.12015869 33.95816895 95.86531738 33.77563477 96.63305664 C32.05286702 103.46081796 30.06217281 109.95855146 24 114 C21.3125 114.125 21.3125 114.125 19 114 C19.0928125 115.36125 19.0928125 115.36125 19.1875 116.75 C19.2006197 123.19177397 17.25348197 129.80067959 14.91796875 135.76171875 C13.67947662 140.13069739 13.65799816 144.22989711 13.6875 148.75 C13.69313965 149.64307861 13.6987793 150.53615723 13.70458984 151.45629883 C13.89587969 161.82288286 16.16135152 169.96943022 23 178 C27.0015441 181.67419635 30.94848339 184.20125765 35.875 186.5 C41.98077494 189.44124986 47.94778062 192.57857022 53.88476562 195.84741211 C67.03827959 203.08906067 79.88312327 209.42726489 94.1875 214 C110.46157071 219.23552392 124.12163962 227.21834706 132.1796875 242.91796875 C135.77133243 250.55640343 138.07497632 258.80134932 140 267 C140.19722656 267.80518066 140.39445312 268.61036133 140.59765625 269.43994141 C142.65714716 279.42153431 142.20704201 289.61342732 142.23342896 299.75408936 C142.33023064 319.44565603 143.49218867 338.09099614 147.6230011 357.32899475 C148.90678922 363.35379947 149.96861268 369.40786218 151 375.48046875 C151.17087631 376.47947205 151.34175262 377.47847534 151.51780701 378.50775146 C152.19751869 382.48303675 152.87680376 386.45836207 153.54568481 390.43548584 C156.36292793 407.08795874 159.82759439 422.7753651 167.5 437.9375 C167.96019531 438.87400391 168.42039062 439.81050781 168.89453125 440.77539062 C170.67367145 444.38629349 172.47213645 447.98507909 174.32958984 451.55639648 C177.28964588 457.2997134 179.61476565 463.04977059 181.625 469.1875 C181.91117188 470.01830078 182.19734375 470.84910156 182.4921875 471.70507812 C186.68537544 484.3322918 188.48650745 497.46462784 190.125 510.625 C190.29386719 511.92695312 190.46273437 513.22890625 190.63671875 514.5703125 C191.55052889 521.76566796 192.28879762 528.93985106 192.76171875 536.17797852 C193.07221846 539.85530041 193.69777823 543.42256623 194.41796875 547.0390625 C194.83326793 549.15179254 195.20631531 551.27300935 195.55078125 553.3984375 C197.65168121 565.90072559 201.27794677 577.89610625 205 590 C205.29986816 590.97936523 205.59973633 591.95873047 205.90869141 592.96777344 C211.89702275 617.82915132 211.89702275 617.82915132 226.3125 637.25 C227.17875 637.83136719 228.045 638.41273438 228.9375 639.01171875 C230.57275557 640.0733834 232.2085134 641.13428836 233.84765625 642.18994141 C235.17232165 643.04419258 236.49479198 643.90185601 237.81518555 644.76269531 C239.115235 645.60873654 240.42115861 646.44584122 241.73364258 647.27246094 C247.64183726 651.10876857 251.39489713 655.56828078 254.75 661.8125 C258.93308827 668.93447592 264.36115568 674.65861677 271.5625 678.75 C273.5234375 679.87890625 273.5234375 679.87890625 275 681 C275.6875 683.6875 275.6875 683.6875 275 686 C271.24851109 688.50099261 268.33704661 688.48458621 264 688 C257.70803542 686.21925531 253.45888737 682.28636833 248.55078125 678.05859375 C246.39365589 676.31769779 244.52577987 675.09430744 242 674 C243.44789334 684.19411083 245.19169945 694.22686933 247.5625 704.25 C250.69312697 717.62873783 253.20332316 731.19717546 252 745 C251.34 745.99 250.68 746.98 250 748 C247.5625 748.4375 247.5625 748.4375 245 748 C240.01956551 742.42191337 239.0533737 734.86698842 238.0625 727.6875 C237.23739087 721.74953516 235.6877936 716.26571281 233.8046875 710.58203125 C233 708 233 708 233 706 C232.34 706 231.68 706 231 706 C231.14099121 706.648479 231.28198242 707.29695801 231.42724609 707.96508789 C239.61958598 745.85717593 239.61958598 745.85717593 238 755 C236.48046875 757.26953125 236.48046875 757.26953125 235 759 C232.09734017 758.68619894 230.44708463 758.43052594 228.3125 756.375 C224.86657776 750.13952167 224.1978094 742.74680279 223.0625 735.8125 C221.70935353 727.76433647 220.23065728 719.85799725 218 712 C218.38041835 716.79527339 218.80263139 721.50504997 219.9375 726.1875 C221.90372754 734.46635281 223.42432136 743.48861272 223 752 C221.75 753.9375 221.75 753.9375 220 755 C217.42593755 754.91956055 216.35974878 754.36559836 214.55859375 752.53515625 C212.23877415 748.76181559 211.23425201 744.74995956 210.0625 740.5 C209.6744519 739.122677 209.6744519 739.122677 209.27856445 737.7175293 C207.02040707 729.49884596 205.31599937 721.20820948 203.76171875 712.83203125 C203.21855268 709.21689517 203.21855268 709.21689517 202 707 C201.97274659 708.7290774 201.95349013 710.45828176 201.9375 712.1875 C201.92009766 713.63189453 201.92009766 713.63189453 201.90234375 715.10546875 C201.90978125 717.91750839 201.90978125 717.91750839 202.5 720.28125 C203.23713337 724.28941268 203.10421142 728.2472408 203.0625 732.3125 C203.05798828 733.14845703 203.05347656 733.98441406 203.04882812 734.84570312 C203.03710548 736.89716649 203.01917203 738.94859273 203 741 C201.35 741.33 199.7 741.66 198 742 C191.99184972 733.92007376 190.57682228 725.24841186 189.25 715.4375 C187.77986302 705.34190566 185.47199929 695.77343468 182.37402344 686.05639648 C179.80876155 677.92858903 178.98665513 670.70272551 178.89453125 662.19140625 C178.87229492 660.32645508 178.87229492 660.32645508 178.84960938 658.42382812 C178.82520874 655.88487753 178.81946056 653.34566693 178.83398438 650.80664062 C178.55177831 634.15648281 171.56289846 619.29428453 165 604.25 C164.34402376 602.73350221 163.68810037 601.21698155 163.03222656 599.70043945 C154.98561171 581.1673418 146.51319532 562.83394823 137.375 544.8125 C124.21266246 518.74505348 113.72338716 494.08474752 110.77655029 464.91299438 C109.46872508 452.05805119 106.82519161 440.10779662 102.88476562 427.77392578 C101.75178287 424.22178724 100.6877905 420.65081606 99.62426758 417.07739258 C98.89051362 414.61457097 98.14691955 412.15488042 97.40234375 409.6953125 C95.13862001 402.16613938 93.05485611 394.58839303 91 387 C90.77393066 386.16952148 90.54786133 385.33904297 90.31494141 384.48339844 C89.62126288 381.92784233 88.93444847 379.37054223 88.25 376.8125 C88.03915771 376.03447021 87.82831543 375.25644043 87.61108398 374.45483398 C86.42500812 369.97750703 85.5603776 365.59875096 85 361 C72.64706969 405.17989192 63.64267412 454.07556288 73.62109375 499.17578125 C74.78641196 504.58951672 75.42704257 509.72314303 75.5 515.25 C75.73182905 522.78818326 77.67934075 528.78598191 80.19140625 535.796875 C101.56466845 595.95865009 101.70765985 660.18898946 96 723 C95.86469286 724.52245621 95.72943747 726.04491701 95.59423828 727.56738281 C93.62294109 749.4837461 90.92926203 771.32460174 88.26205063 793.16495895 C88.00482243 795.27297948 87.74864041 797.38112516 87.49258423 799.48928833 C85.43233531 816.41819529 83.13115894 833.29082405 80.4521637 850.13389587 C73.01383229 897.28282119 75.90208747 946.81256797 83.08665466 993.86228943 C84.26076173 1001.59535343 85.19451263 1009.35580515 86.09936523 1017.12451172 C86.20579346 1018.01412598 86.31222168 1018.90374023 86.421875 1019.8203125 C86.51049805 1020.58617676 86.59912109 1021.35204102 86.69042969 1022.14111328 C86.92075949 1024.08669231 86.92075949 1024.08669231 88 1026 C88.10473709 1027.4494435 88.1486729 1028.90352014 88.16113281 1030.35668945 C88.17057922 1031.26516129 88.18002563 1032.17363312 88.1897583 1033.1096344 C88.19416931 1034.10083786 88.19858032 1035.09204132 88.203125 1036.11328125 C88.21027527 1037.14077988 88.21742554 1038.1682785 88.22479248 1039.22691345 C88.33871017 1060.50204064 88.43100289 1081.53780562 85.34558105 1102.6282959 C84.94133532 1105.40261252 84.54731544 1108.1783108 84.15332031 1110.95410156 C81.11622257 1132.27520818 77.9465529 1153.57406308 74.375 1174.8125 C72.12904372 1188.24246021 70.45902596 1201.73561615 68.8125 1215.25 C68.68566833 1216.29080719 68.55883667 1217.33161438 68.42816162 1218.40396118 C67.70689572 1224.35131473 67.00344599 1230.3004837 66.31829834 1236.25210571 C66.1117754 1238.03503425 65.90204633 1239.81759545 65.6885376 1241.59970093 C64.42471899 1252.15612914 63.67552346 1262.55561705 63.73925781 1273.19067383 C63.75009454 1275.33117371 63.73920072 1277.47085119 63.7265625 1279.61132812 C63.71963429 1287.498791 64.22889003 1295.03911039 65.55297852 1302.84057617 C66.60499238 1310.27591831 66.34509377 1317.63209829 65 1325 C63.49782327 1335.3483286 69.1844478 1344.18040777 74.703125 1352.59765625 C78.51833764 1357.40371295 83.04247869 1359.96430553 88.546875 1362.578125 C91.19702104 1364.11419691 92.47240588 1365.36096697 94 1368 C94.10515043 1373.46782231 92.26376689 1376.95423146 88.9296875 1381.0859375 C84.8699449 1385.11280769 79.79748281 1387.62270437 74.70703125 1390.12890625 C68.8713325 1393.09323464 64.81348993 1396.90641116 60.359375 1401.6953125 C54.39984561 1407.5167071 47.60180504 1409.08167995 39.5 1409.25 C31.30910584 1409.05793765 24.37190445 1407.41884182 18 1402 C12.16956761 1394.87070891 11.22876672 1387.34055679 11.75146484 1378.30566406 C12.51223287 1371.24800866 14.26368391 1364.29748839 15.80859375 1357.37890625 C17.2451534 1350.9376464 18.19382257 1344.86656976 18.1875 1338.25 C18.18814453 1337.53682617 18.18878906 1336.82365234 18.18945312 1336.08886719 C18.15202414 1332.34086434 17.91473584 1328.88299341 17 1325.25 C14.24077717 1313.12553178 15.55930819 1300.92043143 18.5 1289 C22.20113001 1273.51755651 21.48016079 1257.95198931 21.05462646 1242.15148926 C20.971563 1238.87999531 20.92043658 1235.60797245 20.86328125 1232.3359375 C20.50653644 1216.04238926 19.1305881 1199.9113339 17.38964844 1183.71240234 C17.02667873 1180.25418343 16.69803979 1176.79488056 16.3828125 1173.33203125 C14.97659001 1158.40810689 12.78487945 1143.6649728 10.375 1128.875 C10.21688843 1127.90187866 10.05877686 1126.92875732 9.89587402 1125.92614746 C9.44336729 1123.15564305 8.98495612 1120.38620365 8.5234375 1117.6171875 C8.3849942 1116.77584259 8.2465509 1115.93449768 8.10391235 1115.06765747 C7.46059717 1110.91119014 7.46059717 1110.91119014 6 1107 C4.19922002 1096.23743376 3.6013053 1085.52657641 3.625 1074.625 C3.62388214 1073.88974091 3.62276428 1073.15448181 3.62161255 1072.39694214 C3.63413298 1055.40399 4.0726052 1036.48568517 8.54370117 1019.99462891 C12.54198912 1002.51682658 8.8946297 980.9446572 4.71875 963.94042969 C3.98259492 960.92879527 3.29733672 957.90929374 2.625 954.8828125 C1.64213432 950.4644123 0.63663135 946.05218623 -0.39331055 941.64453125 C-0.59351807 940.77183594 -0.79372559 939.89914062 -1 939 C-1.16077971 938.36370446 -1.32155941 937.72740892 -1.48721123 937.0718317 C-2.76244086 931.80168292 -3.29014092 926.91083187 -3.27124023 921.49975586 C-3.27908035 920.30204559 -3.27908035 920.30204559 -3.28707886 919.08013916 C-3.2972535 917.35827004 -3.30308774 915.63637074 -3.30496025 913.91447258 C-3.30867642 911.15341921 -3.32555612 908.39270876 -3.34571838 905.63172913 C-3.40054585 897.78458191 -3.43130221 889.9373806 -3.45629883 882.09008789 C-3.56403447 851.39579072 -4.8253145 821.43851148 -10.0625 791.125 C-14.36870633 765.71052361 -16.16875777 740.78254691 -16.0625 715 C-16.05747123 712.85677189 -16.05291078 710.71354262 -16.04882812 708.5703125 C-16.0379402 703.38017927 -16.02075275 698.19010278 -16 693 C-16.62487305 692.70416016 -17.24974609 692.40832031 -17.89355469 692.10351562 C-20.2618047 690.86284686 -21.53864095 689.53980169 -23.25 687.5 C-23.77078125 686.8915625 -24.2915625 686.283125 -24.828125 685.65625 C-26 684 -26 684 -26 682 C-28.72744872 684.6384222 -31.05088972 687.5043246 -33.40234375 690.4765625 C-35.25608224 692.244186 -36.53860857 692.47565373 -39 693 C-38.98952637 694.1967334 -38.97905273 695.3934668 -38.96826172 696.62646484 C-38.61485786 740.96787622 -38.61485786 740.96787622 -41 763 C-41.1124707 764.09957031 -41.22494141 765.19914063 -41.34082031 766.33203125 C-43.44638974 786.81927983 -43.44638974 786.81927983 -45.5 796.625 C-47.09792166 804.56414764 -47.86493277 812.570701 -48.625 820.625 C-48.74810547 821.90455566 -48.87121094 823.18411133 -48.99804688 824.50244141 C-50.49399068 841.05493564 -51.03666379 857.61090367 -51.2109375 874.2265625 C-51.22171766 875.22328665 -51.22171766 875.22328665 -51.23271561 876.24014664 C-51.29935161 882.42108698 -51.3637954 888.60200937 -51.40136719 894.78320312 C-51.55186133 918.2017248 -54.16358531 939.63517702 -59.625 962.375 C-60.23864555 964.96024804 -60.84996766 967.54602699 -61.45956421 970.13223267 C-61.83404202 971.7178422 -62.21115788 973.30283204 -62.59146118 974.88705444 C-64.7967036 984.14912472 -65.23868648 993.01111157 -65.25 1002.5 C-65.25167175 1003.23720276 -65.25334351 1003.97440552 -65.25506592 1004.73394775 C-65.25666773 1016.54858255 -64.32236846 1027.90797644 -62.38916016 1039.57373047 C-59.55060943 1057.2710436 -58.10866181 1076.12229031 -61.44140625 1093.8203125 C-61.97700387 1096.86909897 -62.31103828 1099.90066665 -62.60205078 1102.98120117 C-63.51768802 1112.58052102 -65.28118405 1121.92220047 -67.17626953 1131.37231445 C-68.7154106 1139.17173703 -69.82702855 1146.8900079 -70.54296875 1154.8046875 C-70.84366846 1157.95064428 -71.35084827 1161.01640135 -71.91796875 1164.125 C-76.52205715 1191.19120272 -77.3905703 1219.2908057 -77.5 1246.6875 C-77.51525726 1248.21180634 -77.51525726 1248.21180634 -77.53082275 1249.76690674 C-77.64105281 1263.36885378 -76.32240907 1276.11029097 -73.53094482 1289.42092896 C-71.20592954 1300.71471941 -69.51096589 1311.8004431 -72 1323.25 C-74.73700779 1336.30943715 -73.37537624 1350.07873961 -69.9765625 1362.84375 C-67.08273555 1373.92840449 -63.84316216 1387.21603111 -68.75 1398.1875 C-72.54665839 1403.5783354 -77.75387601 1406.25475947 -84 1408 C-92.97861428 1409.29769034 -102.92278923 1409.53728469 -110.875 1404.69140625 C-114.13562371 1402.09609363 -116.98691021 1399.17628531 -119.84375 1396.1484375 C-123.82122693 1392.18537172 -128.18476458 1389.66008561 -133.4375 1387.75 C-138.78289196 1385.12419343 -144.2878165 1380.424367 -147 1375 C-147.69382392 1367.94612352 -147.69382392 1367.94612352 -144.9375 1364.1875 C-142 1362 -142 1362 -138.625 1360.625 C-130.53392672 1356.99796715 -124.49858255 1349.00935582 -121 1341 C-120.24863694 1335.52059948 -120.4600803 1330.19659922 -120.75 1324.6875 C-120.87155197 1321.85850722 -120.97005602 1319.02977667 -121.046875 1316.19921875 C-121.06655334 1315.5046608 -121.08623169 1314.81010284 -121.10650635 1314.09449768 C-121.18269268 1308.28997685 -120.07070692 1303.06116418 -118.69433594 1297.42358398 C-117.49852143 1291.52734389 -117.64606091 1285.68023815 -117.75 1279.6875 C-117.75773437 1277.92116211 -117.75773437 1277.92116211 -117.765625 1276.11914062 C-117.90914062 1259.55205623 -119.41566264 1243.34295018 -121.52905273 1226.92382812 C-121.93858178 1223.74159406 -122.34010597 1220.55842847 -122.74023438 1217.375 C-124.02260102 1207.22761787 -125.33608086 1197.09299247 -127 1187 C-127.13038666 1186.2074884 -127.26077332 1185.41497681 -127.39511108 1184.59844971 C-128.54391485 1177.626263 -129.70867157 1170.65677263 -130.875 1163.6875 C-131.21752495 1161.63738266 -131.55997327 1159.58725252 -131.90234375 1157.53710938 C-133.11566562 1150.27289531 -134.32915095 1143.00870832 -135.54473877 1135.74487305 C-136.08238555 1132.53181773 -136.61936566 1129.31865154 -137.15625 1126.10546875 C-137.31745331 1125.14323898 -137.47865662 1124.18100922 -137.64474487 1123.18962097 C-144.84705997 1080.05510708 -146.34405872 1038.80381283 -138.50390625 995.68359375 C-132.84417503 964.52353782 -130.74427775 934.05910625 -130.6875 902.375 C-130.68373352 901.20908325 -130.67996704 900.0431665 -130.67608643 898.84191895 C-130.65244447 884.43863109 -131.19425097 870.29387334 -133 856 C-133.12560303 854.97261719 -133.25120605 853.94523438 -133.38061523 852.88671875 C-133.6861345 850.52385576 -134.0207259 848.16848716 -134.375 845.8125 C-134.4980249 844.97138672 -134.6210498 844.13027344 -134.74780273 843.26367188 C-136.25915195 833.04788121 -137.92135318 822.85500408 -139.56982422 812.66064453 C-141.27238475 802.13027864 -142.73661707 791.59136022 -144 781 C-144.10957031 780.0915332 -144.21914063 779.18306641 -144.33203125 778.24707031 C-145.91241916 765.09598521 -147.34407897 751.93340519 -148.625 738.75 C-148.7480249 737.49050537 -148.8710498 736.23101074 -148.99780273 734.93334961 C-149.69859936 727.60569624 -150.2805157 720.28200436 -150.73193359 712.93457031 C-150.9566232 710.47485351 -151.38811946 708.37529245 -152 706 C-153.56835668 693.01316629 -153.19995301 679.80514075 -153.1875 666.75 C-153.18689575 665.58704407 -153.1862915 664.42408813 -153.18566895 663.22589111 C-153.12674664 621.55129329 -149.22439637 578.00074561 -134.6940918 538.56201172 C-130.51491739 527.17210947 -128.9276901 515.46677315 -127.17578125 503.515625 C-126.43190678 498.49593152 -125.51559371 493.56364585 -124.41796875 488.609375 C-119.09198751 464.49899578 -123.32239398 441.23035951 -127.96875 417.39453125 C-129.03183564 411.90025685 -129.99254461 406.39064803 -130.9375 400.875 C-133.16490757 387.89323195 -135.57729214 374.94653204 -138 362 C-142.81596662 379.43536271 -142.81596662 379.43536271 -147.125 397 C-148.56146875 403.31101804 -150.22945827 409.52952852 -151.99780273 415.75512695 C-154.14659029 423.38385647 -156.05160183 431.07030463 -157.94482422 438.76586914 C-158.18346191 439.73387451 -158.42209961 440.70187988 -158.66796875 441.69921875 C-159.0093689 443.08705566 -159.0093689 443.08705566 -159.35766602 444.50292969 C-159.88097462 446.5372894 -160.48040485 448.55194617 -161.1015625 450.55859375 C-162.05990607 454.2294663 -162.49295317 457.75862526 -162.88623047 461.52416992 C-164.79641361 479.59970357 -169.28826068 497.49687786 -177 514 C-177.60490632 515.38004957 -178.20615548 516.7617052 -178.8046875 518.14453125 C-182.2244525 526.01329446 -185.82058768 533.75150964 -189.71582031 541.39526367 C-194.64404487 551.14380411 -199.0952491 561.12437853 -203.64599609 571.05273438 C-205.37361487 574.81324896 -207.12023293 578.56459572 -208.875 582.3125 C-209.67744141 584.03146484 -209.67744141 584.03146484 -210.49609375 585.78515625 C-211.48483493 587.89875103 -212.47692718 590.01078201 -213.47265625 592.12109375 C-217.5596985 600.851016 -221.42965756 609.66566093 -225.03173828 618.60644531 C-225.65171039 620.13902387 -226.28197105 621.66750508 -226.92529297 623.19042969 C-231.43425257 633.98301955 -232.54280312 643.7753148 -232.74658203 655.44628906 C-232.94503016 666.78284677 -234.34909234 677.26902185 -237.9375 688.0625 C-241.22769789 698.05867374 -242.36692715 708.63430354 -244 719 C-244.47910395 722.02481667 -244.97804965 725.04480379 -245.5 728.0625 C-245.79390625 729.84333984 -245.79390625 729.84333984 -246.09375 731.66015625 C-247.17533454 735.64616824 -248.82490919 738.50113467 -251 742 C-255.875 741.125 -255.875 741.125 -257 740 C-257.27857448 733.96148856 -257.3776123 727.80533829 -256.5 721.8125 C-255.85005535 716.85667204 -255.93297817 711.98864025 -256 707 C-257.57663556 713.16245235 -259.09445159 719.33108252 -260.46484375 725.54296875 C-260.70783203 726.63673828 -260.95082031 727.73050781 -261.20117188 728.85742188 C-261.69434752 731.0878316 -262.18127306 733.31963201 -262.66210938 735.55273438 C-266.16016816 751.16016816 -266.16016816 751.16016816 -270 755 C-272.5 755.125 -272.5 755.125 -275 755 C-277.1539184 752.8460816 -276.30407292 748.75130044 -276.33007812 745.85424805 C-276.20455436 736.83850377 -274.19777138 728.03207929 -272.3671875 719.2355957 C-271.89195043 716.71973923 -271.89195043 716.71973923 -272 713 C-272.12528076 713.76441406 -272.25056152 714.52882813 -272.37963867 715.31640625 C-277.69359712 747.3592142 -277.69359712 747.3592142 -282 757 C-285 759 -285 759 -287.5625 758.75 C-290 758 -290 758 -292 756 C-293.08035121 747.15229615 -291.21914369 738.39218177 -289.5 729.75 C-287.34455238 718.95474214 -287.34455238 718.95474214 -287 708 C-289.68354808 717.1131658 -291.67167223 726.03415667 -292.78442383 735.47583008 C-293.48130546 740.67851622 -294.67242044 743.89960446 -298 748 C-300.0625 749.0625 -300.0625 749.0625 -302 749 C-303.59375 747.94140625 -303.59375 747.94140625 -305 746 C-307.69440458 726.53232009 -301.43401273 705.25950451 -297.47558594 686.29736328 C-296.62794872 682.20277076 -295.81540104 678.10111363 -295 674 C-299.69499848 676.78222132 -303.73253662 679.62046458 -307.8125 683.25 C-312.31084372 686.922259 -315.78708914 688.11036488 -321.5703125 688.2578125 C-324.6534593 687.93066188 -326.65356302 687.0227905 -329 685 C-328.69101949 681.97064758 -328.11953081 681.10029834 -325.7421875 679.10546875 C-324.32292969 678.15607422 -324.32292969 678.15607422 -322.875 677.1875 C-315.48199502 671.97900875 -310.73904625 667.43250427 -306.1875 659.5625 C-301.42743394 651.61092298 -295.5333269 647.38820242 -287.98046875 642.28125 C-287.27277344 641.80059082 -286.56507813 641.31993164 -285.8359375 640.82470703 C-284.43868807 639.88188122 -283.03403339 638.949907 -281.62109375 638.03076172 C-280.63882813 637.37744873 -280.63882813 637.37744873 -279.63671875 636.7109375 C-279.05623779 636.33243652 -278.47575684 635.95393555 -277.87768555 635.56396484 C-272.57472281 631.14701265 -270.03076209 626.48155767 -267.80859375 620.1015625 C-267.40061302 618.97263077 -267.40061302 618.97263077 -266.98439026 617.82089233 C-266.41302399 616.23121328 -265.8477661 614.63932679 -265.28833008 613.04541016 C-264.45024253 610.66124947 -263.59118319 608.28551743 -262.72851562 605.91015625 C-259.61353515 597.2322146 -256.96446385 588.57110783 -254.85009766 579.59594727 C-253.69115937 574.6935917 -252.3576023 569.84686504 -251.02734375 564.98828125 C-250.68124368 563.65980028 -250.33931802 562.33022939 -250 561 C-249.76877441 560.10692139 -249.53754883 559.21384277 -249.29931641 558.29370117 C-247.17064377 549.64095292 -245.91522074 540.97774618 -244.80911255 532.15008545 C-244.49309044 529.63245409 -244.16732464 527.11623057 -243.83959961 524.60009766 C-242.90281858 517.36871439 -241.99602406 510.13770503 -241.22265625 502.88671875 C-239.83313802 490.04024851 -237.338776 478.18809548 -233 466 C-232.63261719 464.96617187 -232.26523437 463.93234375 -231.88671875 462.8671875 C-230.02065186 458.10362766 -227.78904973 453.56275699 -225.453125 449.015625 C-217.53361036 433.59233967 -211.47214207 418.89855295 -208.640625 401.74609375 C-208.19272477 399.12696984 -207.68561827 396.62205491 -207.0703125 394.046875 C-206.1186868 389.85856357 -205.46183871 385.64350037 -204.8515625 381.39453125 C-204.75170044 380.7029039 -204.65183838 380.01127655 -204.5489502 379.2986908 C-204.13567834 376.42028027 -203.72558988 373.54152848 -203.328125 370.66088867 C-202.11661373 361.9302363 -200.5615411 353.67104499 -197.88037109 345.25268555 C-195.75663893 337.40618428 -195.8409304 329.57028081 -195.7890625 321.49609375 C-195.76098172 319.03840494 -195.73231719 316.58072274 -195.703125 314.12304688 C-195.66203791 310.28800736 -195.62510762 306.45308967 -195.59863281 302.61791992 C-195.39286435 275.12476926 -195.39286435 275.12476926 -192 263 C-191.77070801 262.13511963 -191.54141602 261.27023926 -191.30517578 260.37915039 C-190.681185 258.16354755 -189.99359421 255.99055273 -189.25 253.8125 C-188.99468506 253.06057373 -188.73937012 252.30864746 -188.47631836 251.53393555 C-182.68560479 235.17267748 -173.72593547 225.67997693 -158.36865234 218.0625 C-153.39321681 215.83068229 -148.18499096 214.283983 -142.98950195 212.65307617 C-126.53310697 207.41160799 -111.50871428 198.77088931 -96.48535156 190.38085938 C-94.24671348 189.13707381 -91.99779128 187.91576872 -89.7421875 186.703125 C-79.32195479 181.04283426 -71.96581683 175.40587622 -68.31640625 163.83203125 C-65.82041919 153.55545005 -65.58337538 142.62737141 -70 133 C-70.62711096 130.64123696 -71.19117647 128.26470588 -71.6875 125.875 C-71.93886719 124.69679687 -72.19023437 123.51859375 -72.44921875 122.3046875 C-72.92550138 119.44699172 -73.11432856 116.88543507 -73 114 C-73.7425 114.103125 -74.485 114.20625 -75.25 114.3125 C-78 114 -78 114 -80.0078125 111.83984375 C-86.22996686 102.97022372 -90.74124611 89.97834437 -89 79 C-87.25 75.9375 -87.25 75.9375 -85 74 C-83.68 74 -82.36 74 -81 74 C-81.2165625 73.29359375 -81.433125 72.5871875 -81.65625 71.859375 C-83.59305043 64.72190675 -84.30151258 58.12530306 -84.3125 50.75 C-84.32023437 49.51008301 -84.32023437 49.51008301 -84.328125 48.24511719 C-84.1784401 34.84297281 -79.38844542 21.58739735 -70 11.80078125 C-51.19814092 -5.12823639 -23.37085637 -12.08289173 0 0 Z " fill="#F4E4DA" transform="translate(539,59)"/>
</svg>
