<svg width="32" height="32" viewBox="0 0 32 32" fill="none" xmlns="http://www.w3.org/2000/svg">
  <!-- Background with gradient -->
  <defs>
    <linearGradient id="bgGradient" x1="0%" y1="0%" x2="100%" y2="100%">
      <stop offset="0%" style="stop-color:#6366f1;stop-opacity:1" />
      <stop offset="100%" style="stop-color:#8b5cf6;stop-opacity:1" />
    </linearGradient>
  </defs>
  
  <!-- Main background circle -->
  <circle cx="16" cy="16" r="15" fill="url(#bgGradient)" stroke="#4f46e5" stroke-width="2"/>
  
  <!-- Simplified mascot dog character -->
  <!-- Head -->
  <ellipse cx="16" cy="14" rx="6" ry="5" fill="#d4a574" stroke="#b8956a" stroke-width="0.5"/>
  
  <!-- Ears -->
  <ellipse cx="12" cy="10" rx="2" ry="3" fill="#d4a574" stroke="#b8956a" stroke-width="0.5"/>
  <ellipse cx="20" cy="10" rx="2" ry="3" fill="#d4a574" stroke="#b8956a" stroke-width="0.5"/>
  
  <!-- Eyes -->
  <circle cx="14" cy="13" r="1" fill="#2d3748"/>
  <circle cx="18" cy="13" r="1" fill="#2d3748"/>
  
  <!-- Nose -->
  <ellipse cx="16" cy="15" rx="0.8" ry="0.6" fill="#2d3748"/>
  
  <!-- Mouth -->
  <path d="M14 16 Q16 18 18 16" stroke="#2d3748" stroke-width="0.8" fill="none"/>
  
  <!-- Shirt collar -->
  <rect x="13" y="18" width="6" height="2" fill="#87ceeb" stroke="#5dade2" stroke-width="0.3"/>
  
  <!-- Body -->
  <ellipse cx="16" cy="22" rx="4" ry="3" fill="#d4a574" stroke="#b8956a" stroke-width="0.5"/>
  
  <!-- Arms -->
  <ellipse cx="12" cy="21" rx="1.5" ry="2" fill="#d4a574" stroke="#b8956a" stroke-width="0.5"/>
  <ellipse cx="20" cy="21" rx="1.5" ry="2" fill="#d4a574" stroke="#b8956a" stroke-width="0.5"/>
  
  <!-- Clipboard -->
  <rect x="11" y="19" width="2" height="3" fill="white" stroke="#e2e8f0" stroke-width="0.3"/>
  <rect x="11.2" y="19.2" width="1.6" height="2.6" fill="#f7fafc" stroke="#e2e8f0" stroke-width="0.2"/>
  
  <!-- Decorative elements representing healing/connection -->
  <circle cx="8" cy="24" r="1" fill="#fbbf24" opacity="0.8"/>
  <circle cx="24" cy="24" r="1" fill="#fbbf24" opacity="0.8"/>
  <circle cx="16" cy="26" r="0.8" fill="#fbbf24" opacity="0.6"/>
  
  <!-- Small connecting lines -->
  <path d="M8 24L16 26M24 24L16 26" stroke="#fbbf24" stroke-width="0.5" opacity="0.6"/>
</svg>