<?xml version="1.0" encoding="UTF-8"?>
<svg version="1.1" xmlns="http://www.w3.org/2000/svg" width="1024" height="1536">
<path d="M0 0 C337.92 0 675.84 0 1024 0 C1024 506.88 1024 1013.76 1024 1536 C686.08 1536 348.16 1536 0 1536 C0 1029.12 0 522.24 0 0 Z " fill="#FDFDFD" transform="translate(0,0)"/>
<path d="M0 0 C0.78117187 0.350625 1.56234375 0.70125 2.3671875 1.0625 C13.39588737 6.55776914 23.11041035 16.38309333 27.75 27.875 C28.18562633 29.24411132 28.60098895 30.6197731 29 32 C29.41572266 33.21816406 29.41572266 33.21816406 29.83984375 34.4609375 C33.62187663 46.90504568 33.33892084 61.47904683 30 74 C30.94875 73.95875 31.8975 73.9175 32.875 73.875 C36 74 36 74 38 76 C39.33428568 87.76597375 36.32453395 99.50753605 31 110 C29.54296875 111.76953125 29.54296875 111.76953125 28 113 C25.3125 113.1875 25.3125 113.1875 23 113 C22.87625 114.155 22.7525 115.31 22.625 116.5 C21.86581502 122.41748293 20.74433737 127.64404453 17.953125 132.9453125 C15.29163307 138.85967175 15.44845222 144.54714546 15.5625 150.9375 C15.55186523 152.61102539 15.55186523 152.61102539 15.54101562 154.31835938 C15.62369047 165.17420234 17.51745667 173.89462239 25 182 C30.39207637 187.30068524 36.21393737 191.17436356 42.8125 194.8125 C43.72394775 195.32240479 44.63539551 195.83230957 45.57446289 196.35766602 C48.37637986 197.91740868 51.1870905 199.46018736 54 201 C54.85754883 201.47469727 55.71509766 201.94939453 56.59863281 202.43847656 C68.56277265 209.04372739 80.25391755 214.74229752 93.75 217.49609375 C109.09849905 220.93351802 125.15293013 228.28202592 134.12841797 241.68505859 C139.47905047 250.28019871 142.64590296 259.15842251 145 269 C145.24337097 269.8393811 145.48674194 270.67876221 145.73748779 271.5435791 C147.83405426 279.06399229 148.35217412 285.83705482 148.15234375 293.61328125 C148.12411525 296.02148165 148.0961284 298.42968489 148.06835938 300.83789062 C148.006748 304.55819502 147.93819223 308.2782358 147.86303711 311.99829102 C147.55548277 328.52354921 148.51619518 343.83604183 152 360 C152.27310516 361.35162623 152.54393305 362.70371598 152.81176758 364.05639648 C153.48739573 367.39996059 154.20245593 370.73155366 154.9375 374.0625 C155.19055908 375.22442871 155.44361816 376.38635742 155.7043457 377.58349609 C156.46354105 381.0570227 157.230719 384.52869483 158 388 C158.23396484 389.0636377 158.46792969 390.12727539 158.70898438 391.22314453 C159.36313396 394.19165285 160.02361478 397.15865527 160.6875 400.125 C160.97258423 401.41096069 160.97258423 401.41096069 161.26342773 402.72290039 C163.23433443 411.41222217 165.49686764 419.69766188 169.625 427.625 C170.14114868 428.64013672 170.14114868 428.64013672 170.66772461 429.67578125 C173.16321602 434.53102369 175.84265633 439.26804192 178.5625 444 C185.71097523 456.51940072 190.71804617 468.94332982 194 483 C194.37898437 484.47726562 194.37898437 484.47726562 194.765625 485.984375 C196.77175127 494.0515636 198.05084441 502.21596995 199.37670898 510.41503906 C201.08640913 520.83284416 203.20611821 531.14922259 205.44921875 541.46386719 C205.9225806 543.64351386 206.38517162 545.82502481 206.84375 548.0078125 C208.12420891 553.89513988 209.73358064 559.46340738 211.9375 565.07421875 C212.82898749 567.52908688 213.57127617 569.95277822 214.2890625 572.4609375 C216.25633006 579.10509367 218.82110387 585.50099151 221.375 591.9375 C221.84421875 593.13568359 222.3134375 594.33386719 222.796875 595.56835938 C230.25649079 615.97758075 230.25649079 615.97758075 246.1875 629.4375 C258.12662113 636.07876334 271.41527138 644.24581414 276 658 C276.5775 658.28875 277.155 658.5775 277.75 658.875 C280.12401369 660.06200685 281.54975112 661.52071647 283.36328125 663.42578125 C286.98277523 666.90706066 291.04843419 669.90780385 295 673 C294.625 674.9375 294.625 674.9375 294 677 C289.56814226 679.21592887 284.21783515 678.36084004 279.625 677 C275.23900465 674.87376806 271.41658378 671.77610394 267.55078125 668.83984375 C265.39535926 667.28516725 263.38012883 666.14444449 261 665 C261.15557373 665.67240723 261.31114746 666.34481445 261.47143555 667.03759766 C264.45777708 679.94955213 267.43943462 692.86229357 270.3503418 705.79150391 C270.53894775 706.62601074 270.72755371 707.46051758 270.921875 708.3203125 C271.10073242 709.11324707 271.27958984 709.90618164 271.46386719 710.72314453 C271.9744973 712.89169483 272.54518696 715.0366305 273.125 717.1875 C273.97227546 720.87920024 274.26777851 724.09706728 274.25 727.875 C274.25515625 728.98617187 274.2603125 730.09734375 274.265625 731.2421875 C274 734 274 734 272 736 C269.5625 736.375 269.5625 736.375 267 736 C264.60103771 733.33817866 263.46483295 730.90522646 262.53515625 727.47265625 C262.29434326 726.60374756 262.05353027 725.73483887 261.80541992 724.83959961 C261.43767456 723.4649353 261.43767456 723.4649353 261.0625 722.0625 C260.54011075 720.16898133 260.01667403 718.27575132 259.4921875 716.3828125 C259.23920898 715.46274414 258.98623047 714.54267578 258.72558594 713.59472656 C257.49641883 709.19917207 256.13194217 704.84958841 254.76171875 700.49609375 C254.10414774 698.34128412 253.52074684 696.19126146 253 694 C252.34 694 251.68 694 251 694 C251.25692627 695.06528931 251.25692627 695.06528931 251.51904297 696.15209961 C252.30518245 699.4137026 253.09009929 702.67559869 253.875 705.9375 C254.27912109 707.61295898 254.27912109 707.61295898 254.69140625 709.32226562 C256.18567863 715.53625197 257.64806158 721.75345242 259 728 C259.20367188 728.89332031 259.40734375 729.78664063 259.6171875 730.70703125 C260.06623261 733.39671981 260.13243782 735.96153892 260.125 738.6875 C260.12757813 739.64011719 260.13015625 740.59273437 260.1328125 741.57421875 C260 744 260 744 259 746 C256.1875 746.25 256.1875 746.25 253 746 C246.07430076 739.8438229 244.93791372 726.20416622 242.8125 717.5 C242.44119499 715.99468312 242.06945392 714.48947373 241.69726562 712.984375 C240.79314087 709.32413756 239.89494368 705.66249257 239 702 C239 705.84444197 239.55898254 708.6116738 240.53125 712.3046875 C241.00498047 714.13966797 241.00498047 714.13966797 241.48828125 716.01171875 C242.16084597 718.5799292 242.83531458 721.14764184 243.51171875 723.71484375 C243.82753906 724.94074219 244.14335938 726.16664063 244.46875 727.4296875 C244.76201172 728.54585449 245.05527344 729.66202148 245.35742188 730.81201172 C246.00111811 734.00554721 246.26394148 736.75387016 246 740 C244 742 244 742 241.625 742.5 C239 742 239 742 236.9375 739.6875 C231.96500636 731.14427999 229.78282101 720.97225485 227.3125 711.5 C226.70510037 709.19773893 226.09705846 706.89564719 225.48828125 704.59375 C225.22571533 703.59021484 224.96314941 702.58667969 224.69262695 701.55273438 C224.18592969 699.68525937 223.61189909 697.83569728 223 696 C222.34 696 221.68 696 221 696 C221.64268021 699.27146109 222.28968675 702.54205181 222.9375 705.8125 C223.21110352 707.2056543 223.21110352 707.2056543 223.49023438 708.62695312 C223.66748047 709.51962891 223.84472656 710.41230469 224.02734375 711.33203125 C224.18968506 712.15421143 224.35202637 712.9763916 224.51928711 713.82348633 C224.99618914 716.16221265 224.99618914 716.16221265 226 719 C226.11740122 720.684571 226.17506545 722.37388877 226.1875 724.0625 C226.20876953 725.37927734 226.20876953 725.37927734 226.23046875 726.72265625 C226 729 226 729 224 731 C222.0625 730.9375 222.0625 730.9375 220 730 C213.62701668 720.60026998 211.45670053 709.01076544 209.02050781 698.10693359 C207.58392424 691.90289709 205.68200338 686.05634438 203.375 680.125 C199.10383614 669.02020163 196.99747144 658.38252137 196.5625 646.5 C195.53625015 621.60110636 182.27025676 599.77451419 170.36962891 578.4765625 C168.37460523 574.86916139 166.4685433 571.2174324 164.5625 567.5625 C161.09187454 560.94339675 157.44413439 554.43415643 153.75 547.9375 C142.13398145 527.46857933 130.63872528 507.19014597 122.625 485 C122.38595947 484.34201416 122.14691895 483.68402832 121.90063477 483.00610352 C119.21960399 475.27568483 117.98426345 467.42956732 117.1640625 459.31274414 C115.49022365 443.38724188 111.23687256 427.91220815 105.484375 412.97265625 C103.45420666 407.69955392 101.88625867 402.28026822 100.25 396.875 C96.59328206 384.88623795 92.82950956 372.93457951 89 361 C84.22539197 377.9432567 80.16248213 394.93667023 76.60864258 412.17578125 C76.10432291 414.51592162 75.54490707 416.82026433 74.9296875 419.1328125 C73.7659955 423.97338007 73.09290484 428.81885883 72.4375 433.75 C72.18812398 435.59921909 71.93689288 437.44818919 71.68359375 439.296875 C71.57587646 440.10479492 71.46815918 440.91271484 71.35717773 441.74511719 C71 444 71 444 70.46777344 445.95629883 C67.25586923 459.9891016 69.87655999 477.15185595 73.17578125 490.92578125 C75.55738999 500.91694212 77.44866965 510.57821286 78.26831055 520.82226562 C79.87641683 540.40300385 83.43739348 559.76488568 88.75170898 578.67480469 C90.49292976 584.87187104 91.8712376 591.02781826 92.9375 597.375 C93.1029834 598.35049805 93.2684668 599.32599609 93.43896484 600.33105469 C97.06744535 622.14297613 99.77910152 643.91747221 101 666 C101.06305328 667.09763168 101.06305328 667.09763168 101.12738037 668.21743774 C101.94765931 682.70798782 102.23838123 697.17483995 102.25 711.6875 C102.25167175 712.8065271 102.25334351 713.9255542 102.25506592 715.07849121 C102.25689344 735.72588582 101.1792322 756.16787919 99.3671875 776.72851562 C99.04602701 780.39469239 98.77591073 784.0621987 98.53125 787.734375 C97.72919275 799.42438354 96.25775078 810.97383477 94.5625 822.5625 C94.40723846 823.62815186 94.40723846 823.62815186 94.24884033 824.71533203 C93.1646792 832.08959857 91.95473577 839.40959696 90.46484375 846.71484375 C89.97578162 849.14307202 89.48745364 851.57144832 89 854 C88.6891748 855.50143555 88.6891748 855.50143555 88.37207031 857.03320312 C86.57958098 866.82958867 86.73142386 876.63714438 86.79418945 886.55981445 C86.81265237 889.58748657 86.81469716 892.61485508 86.81445312 895.64257812 C86.8193623 897.57552348 86.82518798 899.50846677 86.83203125 901.44140625 C86.83370049 902.79293541 86.83370049 902.79293541 86.83540344 904.17176819 C86.84497322 905.42974464 86.84497322 905.42974464 86.85473633 906.71313477 C86.85854813 907.44669693 86.86235992 908.18025909 86.86628723 908.93605042 C87.00444973 911.0686847 87.47607134 912.93274917 88 915 C88.09423763 917.12977038 88.18323544 919.25997612 88.23852539 921.39111328 C88.93255747 946.45414615 92.21632428 971.05970084 98.18188477 995.39501953 C102.00737722 1011.13809912 103.4149245 1026.75609999 103.375 1042.9375 C103.37512085 1043.70958801 103.3752417 1044.48167603 103.37536621 1045.27716064 C103.30470484 1077.75756162 99.49197642 1110.90272471 94.00390625 1142.90625 C92.80980376 1149.93143729 91.93131852 1156.99102441 91.0625 1164.0625 C90.88895384 1165.45866356 90.71536925 1166.85482234 90.54174805 1168.25097656 C89.24796004 1178.71421429 88.05772396 1189.18725201 86.95141602 1199.67211914 C86.78403931 1201.23434204 86.78403931 1201.23434204 86.61328125 1202.828125 C86.51829346 1203.7346582 86.42330566 1204.64119141 86.32543945 1205.57519531 C86.02887656 1207.78484474 85.5438216 1209.84208722 85 1212 C82.38129884 1240.82096394 82.38129884 1240.82096394 88.04052734 1268.76367188 C89.02822157 1272.09519215 89.22552515 1274.72090364 89.203125 1278.18359375 C89.23277223 1297.35527114 89.23277223 1297.35527114 96 1315 C96.35239746 1315.63760254 96.70479492 1316.27520508 97.06787109 1316.93212891 C102.19979585 1326.1173218 108.3536506 1334.00874821 115.28125 1341.890625 C121.03295915 1348.44250306 125.03335985 1353.24834072 124.53515625 1362.34375 C123.48957662 1367.53348832 120.68443964 1371.31556036 117 1375 C116.05125 1375.28875 115.1025 1375.5775 114.125 1375.875 C110.93483872 1376.73919426 110.93483872 1376.73919426 109.1875 1379.0625 C105.85973284 1382.00995091 102.33879827 1381.98493473 98 1382 C96.88625 1381.814375 95.7725 1381.62875 94.625 1381.4375 C91.77629426 1380.65517968 91.77629426 1380.65517968 89 1383 C82.64820033 1383.91494067 76.66117878 1384.01260999 71.125 1380.5 C62.02459148 1373.35325716 57.02678831 1365.65991487 55.1875 1354.1953125 C53.83787168 1342.95772365 53.83787168 1342.95772365 47.4375 1334.125 C46.67308594 1333.63257813 45.90867187 1333.14015625 45.12109375 1332.6328125 C42.18528321 1330.37283312 41.26904003 1328.48685761 40 1325 C39.6389647 1321.79970294 39.67040165 1318.65377079 39.75 1315.4375 C39.75515625 1314.60025391 39.7603125 1313.76300781 39.765625 1312.90039062 C39.84413299 1306.70316607 39.84413299 1306.70316607 40.51757812 1303.66503906 C41.1165163 1300.35632999 41.02218653 1297.28687168 40.921875 1293.92578125 C40.89069173 1292.52958016 40.86138323 1291.13333621 40.83374023 1289.73706055 C40.81914764 1289.01336273 40.80455505 1288.28966492 40.78952026 1287.54403687 C40.55453094 1274.27521502 41.28524308 1262.53661593 46 1250 C47.19216918 1245.8667736 47.1614355 1241.82727281 47.16796875 1237.5546875 C47.17220352 1236.72094604 47.17643829 1235.88720459 47.18080139 1235.02819824 C47.190728 1232.31041481 47.19071204 1229.59279847 47.1875 1226.875 C47.18689575 1225.94584778 47.1862915 1225.01669556 47.18566895 1224.05938721 C47.15896258 1208.95628821 46.68166166 1194.0207116 45 1179 C44.87109375 1177.82985352 44.7421875 1176.65970703 44.609375 1175.45410156 C42.87765192 1160.15320575 40.59897099 1144.97547551 37.9375 1129.8125 C37.81370972 1129.10311279 37.68991943 1128.39372559 37.56237793 1127.6628418 C36.19831641 1119.90013285 34.64364552 1112.22949876 32.6628418 1104.59790039 C31.79258168 1101.18705769 31.10296967 1097.76913961 30.4375 1094.3125 C29.66327898 1090.33655245 28.87501565 1086.37799548 27.9375 1082.4375 C25.5207556 1071.54178438 24.6944509 1060.84772008 24.79418945 1049.72363281 C24.81242725 1047.63333777 24.81469801 1045.54349151 24.81445312 1043.453125 C24.87022442 1021.67937338 24.87022442 1021.67937338 26.51953125 1011.9284668 C30.1172527 990.00028146 26.043418 967.61166435 19.23046875 946.7890625 C15.89953485 936.53190097 13.80873769 926.83554907 13.04296875 916.109375 C12.96183838 915.03851151 12.88070801 913.96764801 12.79711914 912.86433411 C12.52483948 909.24334474 12.26182622 905.62175957 12 902 C11.85272284 899.98778713 11.70544159 897.97557456 11.55794239 895.96337795 C11.08447144 889.49984437 10.61440207 883.03606176 10.14453125 876.57226562 C10.0915025 875.84352958 10.03847376 875.11479353 9.98383808 874.36397457 C9.71234556 870.62865677 9.44296392 866.89320399 9.17724609 863.1574707 C8.91397669 859.45836736 8.64516005 855.75970206 8.37278748 852.06125832 C8.2719438 850.67856987 8.17304216 849.29573808 8.0763092 847.91275597 C7.549567 840.39548722 6.80653017 833.01902691 5.46064758 825.60145569 C4.85743282 822.19486779 4.43792374 818.7750555 4.01171875 815.34277344 C2.76124921 805.34278359 0.96887006 795.54849008 -1.15893555 785.70019531 C-2.73655295 778.37814193 -4.06855885 771.05544216 -5.2265625 763.65625 C-5.86097351 759.66107548 -6.64269632 755.70053144 -7.41796875 751.73046875 C-9.25068675 742.14439627 -10.5057403 732.49740136 -11.6875 722.8125 C-11.79838959 721.91556427 -11.90927917 721.01862854 -12.02352905 720.09451294 C-13.630281 706.96252122 -14.52157602 694.24803091 -14 681 C-20.27 681 -26.54 681 -33 681 C-32.9071875 685.6096875 -32.9071875 685.6096875 -32.8125 690.3125 C-32.68375414 715.08208478 -37.35897403 739.53092093 -41.62249756 763.84680176 C-41.98747486 765.92855912 -42.35064969 768.01062334 -42.71337891 770.09277344 C-44.53435691 780.517383 -46.35873562 790.93203923 -48.515625 801.29296875 C-50.09746172 809.15188746 -51.14198764 817.04294379 -52.0625 825 C-52.18948273 826.07515366 -52.18948273 826.07515366 -52.31903076 827.17202759 C-54.3830922 844.64837628 -55.83136832 862.13006716 -57 879.6875 C-57.08483643 880.95239258 -57.16967285 882.21728516 -57.25708008 883.52050781 C-57.67283078 889.78825853 -58.06132559 896.05542295 -58.39453125 902.328125 C-59.54848235 922.742898 -63.00285389 941.77626175 -70 961 C-75.9087029 977.45842336 -74.79225501 996.13569096 -73 1013.25 C-70.44998787 1038.83391392 -69.9898846 1065.90632724 -76 1091 C-76.1654834 1091.69561035 -76.3309668 1092.3912207 -76.50146484 1093.10791016 C-77.2761305 1096.30054342 -78.09671438 1099.47939026 -78.93359375 1102.65625 C-85.24091956 1127.48207427 -88.49735327 1153.19302647 -91.1875 1178.625 C-91.27226593 1179.42184204 -91.35703186 1180.21868408 -91.44436646 1181.03967285 C-96.33194712 1220.94049597 -96.33194712 1220.94049597 -90 1260 C-88.31936654 1265.09381482 -87.78067098 1269.37727293 -87.875 1274.734375 C-87.88635986 1275.81238373 -87.88635986 1275.81238373 -87.89794922 1276.91217041 C-87.93023799 1279.95118668 -87.98631152 1282.98963778 -88.04101562 1286.02832031 C-88.17366979 1294.1097514 -88.17124117 1301.84410369 -86.46728516 1309.79589844 C-84.94804052 1316.96190711 -85.31962678 1323.65452893 -89 1330 C-91.25303195 1332.5418822 -93.35176408 1334.5740164 -96.1875 1336.4375 C-100.02177797 1339.74291204 -100.30746174 1345.37732405 -101.03759766 1350.16577148 C-103.02743777 1363.19476076 -107.26717485 1372.02089793 -117.90625 1380.5234375 C-123.67507714 1383.97006727 -130.48420219 1383.76656445 -137 1383 C-137.99 1382.34 -138.98 1381.68 -140 1381 C-143.53552903 1380.93919238 -147.02420582 1381.13291963 -150.5546875 1381.3203125 C-154.62602793 1380.94179786 -156.18311475 1379.90256998 -159 1377 C-159 1376.34 -159 1375.68 -159 1375 C-159.7425 1375.103125 -160.485 1375.20625 -161.25 1375.3125 C-164 1375 -164 1375 -166.125 1372.875 C-169.45700043 1367.76593268 -171.79221115 1363.6712189 -171.5234375 1357.46875 C-169.68523646 1348.79902569 -162.32757727 1342.00098788 -156.63378906 1335.55297852 C-146.68542932 1324.0768572 -136.93048921 1309.61457771 -136.859375 1293.9765625 C-136.84003906 1292.78933594 -136.82070313 1291.60210938 -136.80078125 1290.37890625 C-136.76745764 1287.91552252 -136.74873995 1285.45188894 -136.74609375 1282.98828125 C-136.61368724 1276.50036239 -135.95687887 1271.33507034 -133.48828125 1265.30859375 C-130.0191457 1256.4174568 -130.28073969 1247.84192373 -130.4375 1238.4375 C-130.44805923 1237.09097855 -130.44805923 1237.09097855 -130.45883179 1235.71725464 C-130.58113435 1220.65668661 -132.00328449 1206.149871 -134.48291016 1191.28515625 C-135.33096001 1185.89735699 -135.91133631 1180.48372984 -136.5 1175.0625 C-137.70495148 1164.22878455 -139.12217791 1153.43066782 -140.58764648 1142.62939453 C-141.59076069 1135.19580047 -142.51038951 1127.76420837 -143.28369141 1120.3034668 C-143.66422216 1116.72407345 -144.11136156 1113.17194948 -144.6796875 1109.6171875 C-149.46267389 1079.56877891 -153.30761771 1046.44404031 -148.36816406 1016.25439453 C-147.93100112 1013.57749627 -147.52570979 1010.89625915 -147.1171875 1008.21484375 C-145.56470346 998.27082833 -143.75881599 988.6347796 -140.99780273 978.95581055 C-136.77875278 963.04666846 -136.03373157 946.08933905 -134.8125 929.75 C-134.68367432 928.04354309 -134.68367432 928.04354309 -134.55224609 926.3026123 C-132.62788205 900.44963303 -131.33341785 875.51913827 -136.43554688 849.93066406 C-138.28132361 840.3473146 -139.60308732 830.65697739 -141 821 C-141.165 819.86320801 -141.33 818.72641602 -141.5 817.55517578 C-149.38031827 762.07742735 -152.92202686 704.94111544 -146.25646973 649.16497803 C-145.98392398 646.86429501 -145.72306447 644.56247741 -145.46386719 642.26025391 C-142.23541999 613.78441793 -137.41920495 585.98338053 -130.3125 558.1953125 C-127.62719647 547.63994565 -125.99547155 537.31594786 -125.08398438 526.46337891 C-124.97376953 525.15546387 -124.86355469 523.84754883 -124.75 522.5 C-124.69529541 521.83861023 -124.64059082 521.17722046 -124.58422852 520.49578857 C-123.74446281 510.63211498 -122.11308546 501.21285369 -119.80007935 491.59204102 C-114.32481217 468.80133137 -115.45035371 448.84933472 -120 426 C-120.48725052 423.48442754 -120.97421735 420.96880013 -121.4609375 418.453125 C-125.84421693 389.06106479 -125.84421693 389.06106479 -135 361 C-137.8863866 370.03607626 -140.75826564 379.06918718 -143.375 388.1875 C-145.37581742 395.12752537 -147.63212855 401.96822596 -149.9375 408.8125 C-150.97230953 411.91765324 -152.00524486 415.02342374 -153.03759766 418.12939453 C-153.63261642 419.90418666 -154.23497815 421.67655872 -154.84912109 423.44482422 C-158.6343039 434.35450487 -160.79433047 445.22106856 -162.56420898 456.6010437 C-164.75435761 470.67604318 -167.13867706 483.9084182 -173 497 C-173.42555176 497.95310059 -173.85110352 498.90620117 -174.28955078 499.88818359 C-181.13065935 514.978654 -188.89420368 529.55783985 -197 544 C-197.40847168 544.73009277 -197.81694336 545.46018555 -198.23779297 546.21240234 C-200.08281382 549.50868489 -201.93488082 552.80091083 -203.79296875 556.08984375 C-215.61729822 577.02533145 -227.01260021 598.1141621 -237 620 C-237.31404785 620.67369629 -237.6280957 621.34739258 -237.95166016 622.04150391 C-241.72321816 630.29840135 -242.36957951 637.75861052 -242.5559082 646.67553711 C-242.7602293 653.55023219 -243.76716263 659.98951406 -245.3125 666.6875 C-245.61414063 668.01297852 -245.61414063 668.01297852 -245.921875 669.36523438 C-247.20973656 674.65666558 -248.96066503 679.57456706 -251.04760742 684.59985352 C-252.477889 688.20433907 -253.50384776 691.88138196 -254.5 695.625 C-254.71011719 696.39062256 -254.92023438 697.15624512 -255.13671875 697.94506836 C-256.17080301 701.74963669 -257.14540389 705.5605053 -258.03125 709.40234375 C-261.77469641 725.59148541 -261.77469641 725.59148541 -266 730 C-268.59765625 730.78515625 -268.59765625 730.78515625 -271 731 C-272.57495079 729.42504921 -272.17007022 727.87319477 -272.1875 725.6875 C-272.13258784 719.34514548 -271.87599228 711.75198456 -269 706 C-268.77532169 704.46331135 -268.59203195 702.92031946 -268.4375 701.375 C-268.31181641 700.14910156 -268.31181641 700.14910156 -268.18359375 698.8984375 C-268.12300781 698.27195312 -268.06242187 697.64546875 -268 697 C-268.66 697 -269.32 697 -270 697 C-270.1959375 697.94875 -270.391875 698.8975 -270.59375 699.875 C-272.56563555 708.99953523 -275.0948236 717.8781626 -278 726.75 C-278.33193359 727.78511719 -278.66386719 728.82023438 -279.00585938 729.88671875 C-280.70041306 734.9537339 -282.19138435 739.08936786 -286 743 C-288.4375 742.625 -288.4375 742.625 -291 742 C-293.7236198 736.5527604 -291.45463527 730.50931356 -289.859375 725.03125 C-288.3590602 719.73923051 -287.2015147 714.36631567 -286 709 C-285.79117188 708.06800781 -285.58234375 707.13601563 -285.3671875 706.17578125 C-284.9084356 704.117859 -284.45368779 702.05904461 -284 700 C-285.69014231 705.3216442 -287.19390571 710.64734771 -288.4296875 716.09375 C-288.66816406 717.14433594 -288.90664063 718.19492187 -289.15234375 719.27734375 C-289.63374343 721.42412612 -290.10771886 723.57258694 -290.57421875 725.72265625 C-292.30225549 733.25393935 -294.38288642 741.38288642 -300 747 C-302.5 747.3125 -302.5 747.3125 -305 747 C-308.28274183 742.07588725 -307.6668063 736.74536709 -306.64697266 731.01708984 C-305.5896374 725.97215724 -304.29833969 720.9872157 -303 716 C-302.45659786 713.83376794 -301.91471274 711.66715421 -301.375 709.5 C-301.13910156 708.56671875 -300.90320313 707.6334375 -300.66015625 706.671875 C-299.7024787 702.79583093 -298.84542024 698.90193955 -298 695 C-298.66 695 -299.32 695 -300 695 C-300.18175781 695.75023437 -300.36351562 696.50046875 -300.55078125 697.2734375 C-301.96842428 703.04578912 -303.49447015 708.74773939 -305.25 714.42578125 C-306.09531554 717.32715075 -306.79892344 720.24809048 -307.5 723.1875 C-309.79697894 732.32829823 -309.79697894 732.32829823 -312 736 C-315.0625 737.0625 -315.0625 737.0625 -318 737 C-320.75512836 734.24487164 -320.29145385 732.63460288 -320.296875 728.78125 C-320.18344004 721.11461122 -318.91406972 713.96431275 -317.25 706.5 C-316.99734375 705.29730469 -316.7446875 704.09460938 -316.484375 702.85546875 C-314.9143037 695.54678684 -313.03555012 688.38260933 -310.8828125 681.22412109 C-309.51159849 676.21630798 -308.71508761 671.13733997 -308 666 C-313.6139666 669.1853895 -318.80256698 672.37783297 -323.52734375 676.80078125 C-326.57005121 679.27852977 -329.75059908 679.16230241 -333.5 679.1875 C-334.4590625 679.20167969 -335.418125 679.21585938 -336.40625 679.23046875 C-339 679 -339 679 -342 677 C-342 675.68 -342 674.36 -342 673 C-340.05859375 671.2890625 -340.05859375 671.2890625 -337.4375 669.625 C-329.6678018 664.84040752 -329.6678018 664.84040752 -324 658 C-323.34 658 -322.68 658 -322 658 C-321.73316406 657.43925781 -321.46632813 656.87851562 -321.19140625 656.30078125 C-314.91523604 644.18057058 -305.85049112 638.02086674 -294.46142578 631.26538086 C-269.64307002 616.52220805 -260.07546781 577.62604112 -253.15283203 550.70556641 C-251.53772303 543.84480423 -250.23782729 536.93708999 -249 530 C-248.64223571 528.08563578 -248.28286323 526.1715714 -247.921875 524.2578125 C-245.98264535 513.88762415 -245.98264535 513.88762415 -244.33203125 503.46875 C-241.0027867 480.66661375 -233.80613424 459.03849312 -221.875 439.3125 C-209.9973146 419.65218794 -205.77254051 397.45220359 -201.3125 375.1875 C-201.16797394 374.46663208 -201.02344788 373.74576416 -200.87454224 373.00305176 C-200.02030089 368.71676623 -199.2013214 364.42514635 -198.40530396 360.12768555 C-198.00991177 358.05203286 -197.58044651 355.98580063 -197.14624023 353.91796875 C-194.34749632 339.91408874 -194.50883903 325.85760066 -194.4375 311.625 C-194.41353804 307.8748324 -194.385217 304.12488505 -194.34571838 300.37484741 C-194.32177239 298.06195775 -194.30658216 295.74895289 -194.30210876 293.4359436 C-194.09999418 272.36147653 -188.6753624 248.62845204 -173.46875 233.109375 C-162.9458959 224.11832878 -149.89141222 219.90947647 -136.6875 216.625 C-114.66213199 211.06748179 -78.66868693 196.30126821 -66.37890625 176.37109375 C-63.5336956 170.57589131 -62.17393162 165.40800706 -62 159 C-61.90332031 157.72640625 -61.80664062 156.4528125 -61.70703125 155.140625 C-61.0926027 144.19765257 -63.32712862 135.6531125 -67.37109375 125.5234375 C-69.01203576 121.32341808 -69.63553208 117.48654878 -70 113 C-70.886875 113.04125 -71.77375 113.0825 -72.6875 113.125 C-76.62137782 111.78896602 -76.87077799 111.07805614 -78.6875 107.5 C-82.87937328 98.06491545 -86.09170786 88.46054622 -85 78 C-83.8125 75.4375 -83.8125 75.4375 -82 74 C-79.3125 73.75 -79.3125 73.75 -77 74 C-77.16153564 73.12690186 -77.32307129 72.25380371 -77.48950195 71.35424805 C-78.27764686 66.17571008 -78.18441492 61.04170454 -78.1875 55.8125 C-78.19974609 54.73935547 -78.21199219 53.66621094 -78.22460938 52.56054688 C-78.253965 36.3855973 -74.21543733 23.9478575 -63.546875 11.54296875 C-47.65892928 -4.32060896 -20.52369075 -9.77931346 0 0 Z " fill="#F8E5D8" transform="translate(536,67)"/>
<path d="M0 0 C1.29642146 3.88926439 0.40419756 5.61344668 -0.8125 9.5 C-2.65389021 15.62947192 -4.01970879 21.67970144 -5 28 C-7 25 -7 25 -6.86328125 22.94140625 C-6.68152344 22.15636719 -6.49976563 21.37132812 -6.3125 20.5625 C-6.01279297 19.24765625 -6.01279297 19.24765625 -5.70703125 17.90625 C-5.47371094 16.9471875 -5.24039063 15.988125 -5 15 C-4.75636719 13.9378125 -4.51273438 12.875625 -4.26171875 11.78125 C-2.28468956 3.42703434 -2.28468956 3.42703434 0 0 Z " fill="#FCF7F3" transform="translate(252,766)"/>
</svg>
